<?xml version="1.0" encoding="UTF-8" standalone="no"?>
<!-- Generator: Adobe Illustrator 11 Build 196, SVG Export Plug-In . SVG Version: 6.0.0 Build 78)  -->
<svg style="width: 150px; height:150px" rulerorigin="0 0" overflow="visible" vieworigin="129.9341 392.8721" pagebounds="0 595.2764 841.8896 0" enable-background="new 0 0 188.873 223.338" xml:space="preserve" viewBox="0 0 188.873 223.338">
	<polygon id="box-right" fill="rgb(83, 165, 212)" points="188.87 54.608 188.55 168.73 94.582 223.34 94.905 109.22" knockout="Off"></polygon>
	<polygon fill="rgba(0,0,0,.45)" points="188.87 54.608 188.55 168.73 94.582 223.34 94.905 109.22" knockout="Off"></polygon>
	<polygon id="box-left" fill="rgb(83, 165, 212)" points="94.905 109.22 94.582 223.34 0 168.73 0.323 54.608" knockout="Off"></polygon>
	<polygon fill="rgba(0,0,0,.3)" points="94.905 109.22 94.582 223.34 0 168.73 0.323 54.608" knockout="Off"></polygon>
	<polygon id="box-top" fill="rgb(83, 165, 212)" points="188.87 54.608 94.905 109.22 0.323 54.608 94.291 0" knockout="Off"></polygon>
	<line y2="82.781" x1="47.769" knockout="Off" x2="141.84" stroke="#72512F" y1="27.226" stroke-width="2" fill="none"></line>
	<polygon fill="rgb(225, 137, 78)" points="146.65 79.052 129.72 89.216 35.138 34.608 52.068 24.445" knockout="Off"></polygon>
	<polygon fill="rgb(225, 137, 78)" points="146.76 78.939 146.75 109.15 129.52 119.46 129.53 89.252" knockout="Off"></polygon>
	<polygon fill="rgba(0,0,0,.3)" points="146.76 78.939 146.75 109.15 129.52 119.46 129.53 89.252" knockout="Off"></polygon>
</svg>
